<svg width="32" height="32" viewBox="0 0 32 32" fill="none" xmlns="http://www.w3.org/2000/svg">
  <!-- Orange arrow/triangle from Conectenvios logo -->
  <path fill-rule="evenodd" clip-rule="evenodd" d="M8.5 2C12 2 15.5 2 19 1.9C19.2 1.9 19.4 2 19.5 2.2C19.6 2.4 19.6 2.6 19.4 2.7C16 6.4 12.5 10.1 9 13.8C8.8 14.1 8.5 14.2 8.1 14.1C7.8 14 7.6 13.8 7.5 13.4C6.7 10.3 5.7 7.1 4.9 3.9C4.9 3.6 4.9 3.3 5.1 3.1C5.3 2.8 5.5 2.7 5.8 2.7L8.5 2Z" fill="#FF6900"/>
  <!-- Yellow accent -->
  <path fill-rule="evenodd" clip-rule="evenodd" d="M6.2 16.5C7.3 19 8.4 21.5 9.5 24C9.7 24.5 9.6 24.9 9.2 25.2C6.6 26.9 4 28.6 1.5 30.3C1.3 30.4 1.1 30.5 0.9 30.4C0.7 30.3 0.6 30.1 0.5 29.9C-0.2 27.3 -0.8 25 -1.3 22.7C-1.4 22.3 -1.3 22 -1 21.7C1 20.1 3 18.4 5 16.7C5.2 16.5 5.4 16.5 5.6 16.5C5.9 16.6 6.1 16.8 6.2 16.5Z" fill="#FFCD00" transform="translate(4, 0)"/>
  <!-- Gray curved line -->
  <path fill-rule="evenodd" clip-rule="evenodd" d="M19 7C18.2 7.3 17.3 7.7 16.2 8.2C13.3 9.6 9 12.3 6 15C4.3 16.7 2.7 18.6 1.3 20.8L1.2 20.7C1.1 20.5 1 20.3 0.8 20.1C0.6 19.9 0.5 19.8 0.2 19.8C0 19.7 -0.3 19.7 -0.5 19.8C-0.7 19.8 -0.9 19.9 -1 20L-1.2 20.1C3.6 12.8 10.5 8 17.5 6L17.6 6.4L19 7Z" fill="url(#iconGradient)" transform="translate(12, 0)"/>
  <defs>
    <linearGradient id="iconGradient" x1="8" y1="15" x2="20" y2="-5" gradientUnits="userSpaceOnUse">
      <stop stop-color="#969696"/>
      <stop offset="1" stop-color="#606060"/>
    </linearGradient>
  </defs>
</svg>
