<svg width="200" height="50" viewBox="0 0 200 50" fill="none" xmlns="http://www.w3.org/2000/svg">
<path d="M132.906 40.2598C131.867 40.9091 130.828 41.4286 129.789 41.8182C128.75 42.0779 127.581 42.2078 126.412 42.2078C124.075 42.2078 122.127 41.5585 120.698 40C119.269 38.5714 118.49 36.4935 118.49 34.026C118.49 31.8182 119.269 29.8701 120.568 28.4416C121.997 27.013 123.815 26.3636 126.023 26.3636C128.23 26.3636 129.919 27.013 131.218 28.5714C132.516 30 133.166 31.9481 133.166 34.4156V34.8052H121.737C121.867 36.2338 122.256 37.4026 123.166 38.1818C124.075 38.961 125.114 39.3507 126.542 39.3507C127.581 39.3507 128.62 39.2208 129.659 38.8312C130.698 38.5714 131.737 37.9221 132.906 37.2727V40.2598ZM121.737 32.5974H129.789C129.659 31.5585 129.269 30.6494 128.62 30C127.971 29.3507 127.062 28.9611 126.023 28.9611C124.854 28.9611 123.815 29.2208 123.166 29.8701C122.386 30.5195 121.997 31.4286 121.737 32.5974Z" fill="#FF6900"/>
<path d="M135.244 41.948V26.6234H138.36V28.5714C139.01 27.7922 139.789 27.2727 140.568 26.8831C141.347 26.6234 142.127 26.3636 143.036 26.3636C144.724 26.3636 146.023 26.8831 146.932 27.7922C147.841 28.8311 148.36 30.1298 148.36 31.8182V41.948H145.244V32.5974C145.244 31.2987 144.984 30.3896 144.464 29.8701C143.945 29.2208 143.166 28.961 142.127 28.961C141.347 28.961 140.568 29.0909 140.049 29.3506C139.399 29.7402 138.88 30.2597 138.36 30.9091V41.948H135.244ZM156.282 42.2078L149.01 26.6234H152.386L157.062 36.7532L161.477 26.6234H164.854L157.711 42.2078H156.282ZM165.503 22.2078C165.503 21.6883 165.763 21.2987 166.023 20.9091C166.412 20.6493 166.802 20.3896 167.321 20.3896C167.711 20.3896 168.231 20.6493 168.49 20.9091C168.88 21.2987 169.01 21.6883 169.01 22.2078C169.01 22.5974 168.88 22.987 168.49 23.3766C168.231 23.7662 167.711 23.8961 167.321 23.8961C166.802 23.8961 166.412 23.7662 166.023 23.3766C165.763 22.987 165.503 22.5974 165.503 22.2078ZM165.763 41.948V26.6234H168.75V41.948H165.763ZM174.205 34.2857C174.205 35.7143 174.724 36.8831 175.633 37.9221C176.672 38.961 177.841 39.3506 179.14 39.3506C180.438 39.3506 181.607 38.961 182.646 37.9221C183.555 36.8831 184.075 35.7143 184.075 34.2857C184.075 32.8571 183.555 31.6883 182.646 30.6493C181.607 29.6104 180.438 29.0909 179.14 29.0909C177.841 29.0909 176.672 29.6104 175.633 30.6493C174.724 31.6883 174.205 32.8571 174.205 34.2857ZM171.088 34.2857C171.088 32.0779 171.867 30.1298 173.425 28.5714C174.984 27.1428 176.932 26.3636 179.14 26.3636C180.308 26.3636 181.218 26.4935 182.257 26.8831C183.295 27.2727 184.075 27.9221 184.854 28.7013C185.633 29.4805 186.282 30.2597 186.672 31.2987C187.062 32.2078 187.321 33.2467 187.321 34.2857C187.321 35.3247 187.062 36.3636 186.672 37.2727C186.282 38.3117 185.633 39.2208 184.854 39.8701C184.075 40.6493 183.295 41.2987 182.257 41.6883C181.347 42.0779 180.308 42.2078 179.14 42.2078C176.932 42.2078 174.984 41.4286 173.425 39.8701C171.867 38.3117 171.088 36.4935 171.088 34.2857ZM188.36 40.9091V37.6623C189.27 38.1818 190.179 38.7013 191.088 38.961C191.867 39.3506 192.646 39.4805 193.425 39.4805C194.205 39.4805 194.724 39.3506 195.244 39.0909C195.633 38.7013 195.893 38.3117 195.893 37.7922C195.893 37.1428 195.114 36.4935 193.425 35.5844C192.906 35.4545 192.516 35.1948 192.257 35.0649C190.828 34.2857 189.919 33.6363 189.399 32.987C188.88 32.3376 188.49 31.4285 188.49 30.5195C188.49 29.2208 189.01 28.1818 189.919 27.4026C190.828 26.6234 192.127 26.3636 193.685 26.3636C194.594 26.3636 195.373 26.3636 196.153 26.6234C196.932 26.8831 197.711 27.1428 198.49 27.5324V30.5195C197.581 30 196.672 29.6104 195.893 29.3506C195.114 29.0909 194.464 28.961 193.685 28.961C193.036 28.961 192.646 29.0909 192.257 29.3506C191.867 29.6104 191.737 29.8701 191.737 30.2597C191.737 31.0389 192.776 31.948 194.984 32.987L195.244 33.1169C196.932 34.026 197.971 34.8052 198.49 35.3247C199.01 35.974 199.27 36.7532 199.27 37.7922C199.27 39.0909 198.75 40.2597 197.711 41.0389C196.672 41.8182 195.373 42.2078 193.685 42.2078C192.776 42.2078 191.867 42.0779 190.958 41.948C190.049 41.6883 189.27 41.2987 188.36 40.9091Z" fill="#4B4B4B"/>
<path d="M105.503 38.3117V41.4286C104.724 41.6883 103.945 41.948 103.295 42.0779C102.516 42.2078 101.737 42.2078 101.088 42.2078C98.6202 42.2078 96.5422 41.4286 94.9838 40C93.2955 38.4415 92.5163 36.6234 92.5163 34.2857C92.5163 31.948 93.2955 30.1299 94.9838 28.5714C96.5422 27.013 98.4903 26.3636 100.958 26.3636H109.399V24.1558L112.257 21.0389H112.516V26.3636H117.321V28.961H112.516C112.516 31.4286 112.516 33.8961 112.516 36.3636C112.516 37.5324 112.776 38.4415 113.036 38.7013C113.295 39.0909 113.945 39.3506 114.854 39.3506C115.244 39.3506 115.763 39.2208 116.153 39.0909C116.542 38.961 117.062 38.8312 117.451 38.5714V41.4286C116.932 41.6883 116.412 41.948 115.893 42.0779C115.373 42.2078 114.854 42.2078 114.205 42.2078C112.386 42.2078 111.218 41.8182 110.568 41.0389C109.789 40.1299 109.529 38.7013 109.529 36.4935V28.961C106.542 28.961 103.425 28.961 100.438 28.961C99.3994 28.961 96.6721 29.8701 95.8929 32.7273C95.763 33.2467 95.763 33.7662 95.763 34.2857C95.763 35.7143 96.2825 37.013 97.1916 37.9221C98.2306 38.8311 99.5293 39.3506 101.218 39.3506C101.867 39.3506 102.646 39.2208 103.425 39.0909C104.075 38.961 104.724 38.7013 105.503 38.3117Z" fill="#4B4B4B"/>
<path d="M90.8279 40.7792C90.0487 41.1688 89.2695 41.5585 88.3604 41.8182C87.3215 42.0779 86.1526 42.2078 85.1137 42.2078C82.6461 42.2078 80.6981 41.5585 79.2695 40C77.8409 38.5714 77.1916 36.4935 77.1916 34.026C77.1916 31.8182 77.8409 29.8701 79.1396 28.4416C80.5682 27.013 82.3864 26.3636 84.5942 26.3636C86.802 26.3636 88.6202 27.013 89.789 28.5714C91.0877 30 91.737 31.9481 91.737 34.4156V34.8052H80.3085C80.4383 36.2338 80.9578 37.4026 81.737 38.1818C82.6461 38.961 83.815 39.3507 85.2435 39.3507C86.1526 39.3507 87.1916 39.2208 88.2306 38.8312C88.3604 38.8312 88.4903 38.8312 88.6202 38.7013L90.8279 40.7792ZM80.3085 32.5974H88.4903C88.3604 31.5585 87.9708 30.6494 87.1916 30C86.5422 29.3507 85.6331 28.9611 84.5942 28.9611C83.4254 28.9611 82.5163 29.2208 81.737 29.8701C81.0877 30.5195 80.5682 31.4286 80.3085 32.5974Z" fill="#4B4B4B"/>
<path d="M62.2565 41.9481V26.6234H65.3734V28.4416C66.1526 27.7922 66.9319 27.2727 67.5812 26.8831C68.3604 26.6234 69.1396 26.3636 70.0487 26.3636C71.737 26.3636 73.0357 26.8831 73.9448 27.7922C74.9838 28.8312 75.3734 30.1299 75.3734 31.8182V41.9481H72.3864V32.5974C72.3864 31.2987 72.1267 30.3896 71.6072 29.8701C71.0877 29.2208 70.3085 28.9611 69.1396 28.9611C68.3604 28.9611 67.7111 29.0909 67.0617 29.3507C66.5422 29.7403 65.8929 30.2598 65.3734 30.9091V41.9481H62.2565Z" fill="#4B4B4B"/>
<path d="M44.9838 34.2857C44.9838 32.0779 45.763 30.1299 47.3215 28.5714C48.8799 27.1429 50.828 26.3636 53.1656 26.3636C54.2046 26.3636 55.2436 26.4935 56.1527 26.8831C57.1916 27.2727 57.9708 27.9221 58.7501 28.7013C59.5293 29.4805 60.1786 30.2598 60.5682 31.2987C60.9579 32.2078 61.2176 33.2468 61.2176 34.2857C61.2176 35.3247 60.9579 36.3636 60.5682 37.2727C60.1786 38.3117 59.5293 39.2208 58.7501 39.8701C57.9708 40.6494 57.1916 41.2987 56.1527 41.6883C55.2436 42.0779 54.2046 42.2078 53.1656 42.2078C50.828 42.2078 48.8799 41.4286 47.3215 39.8701C45.763 38.3117 44.9838 36.4935 44.9838 34.2857ZM48.2306 34.2857C48.2306 35.7143 48.6202 36.8831 49.6591 37.9221C50.5682 38.961 51.7371 39.3507 53.0358 39.3507C54.4643 39.3507 55.6332 38.961 56.5423 37.9221C57.4514 36.8831 57.9708 35.7143 57.9708 34.2857C57.9708 32.8572 57.4514 31.6883 56.5423 30.6494C55.6332 29.6104 54.4643 29.0909 53.0358 29.0909C51.7371 29.0909 50.5682 29.6104 49.6591 30.6494C48.6202 31.6883 48.2306 32.8572 48.2306 34.2857Z" fill="#4B4B4B"/>
<path d="M44.4643 36.4935V40.1298C43.1656 40.9091 41.737 41.4285 40.3085 41.8182C39.0098 42.0779 37.5812 42.3376 36.1526 42.3376C34.8539 42.3376 33.5552 42.2078 32.3864 41.8182C31.2175 41.4285 30.0487 40.9091 29.0098 40.2597C27.3214 39.0909 25.8929 37.6623 24.9838 35.974C24.0747 34.1558 23.5552 32.3376 23.5552 30.2597C23.5552 28.7013 23.8149 27.1428 24.4643 25.7143C25.1136 24.2857 26.0227 22.987 27.1916 21.948C28.3604 20.7792 29.789 19.8701 31.3474 19.3506C32.9059 18.7013 34.5942 18.4415 36.4123 18.4415C37.7111 18.4415 39.0098 18.5714 40.3085 18.8311C41.6072 19.2207 42.9059 19.6104 44.3344 20.2597V23.8961C42.776 23.1169 41.4773 22.4675 40.1786 22.0779C38.8799 21.6883 37.5812 21.5584 36.4123 21.5584C33.6851 21.5584 31.4773 22.3376 29.6591 24.0259C27.9708 25.7143 27.0617 27.7922 27.0617 30.3896C27.0617 32.8571 27.9708 34.935 29.6591 36.6233C31.3474 38.3117 33.5552 39.2208 36.1526 39.2208C37.5812 39.2208 38.8799 38.961 40.3085 38.4415C41.737 38.0519 43.0357 37.4026 44.4643 36.4935Z" fill="#4B4B4B"/>
<path fill-rule="evenodd" clip-rule="evenodd" d="M38.8799 9.22076C37.8409 9.61037 36.6721 10.1298 35.1136 10.7792C30.8279 12.7273 24.5942 16.7532 20.5682 20.7792C17.9708 23.3766 15.6331 26.2337 13.6851 29.4805L13.5552 29.3506C13.4253 28.961 13.1656 28.7013 12.9058 28.4415C12.6461 28.1818 12.3864 28.0519 11.9968 27.9221C11.6071 27.7922 11.2175 27.7922 10.8279 27.9221C10.5682 27.9221 10.1786 28.0519 9.91883 28.3117L9.65909 28.4415C17.711 17.1428 27.711 10.7792 37.9708 7.40258C38.1006 7.40258 38.3604 7.27271 38.3604 7.27271L38.6201 8.05193L38.8799 9.22076Z" fill="url(#paint0_linear_2066_210)"/>
<path fill-rule="evenodd" clip-rule="evenodd" d="M12.3864 29.8701C13.8149 33.2467 15.3734 36.7532 16.9318 40.3896C17.1916 41.0389 17.0617 41.5584 16.5422 41.948C12.776 44.4156 9.13961 46.8831 5.50325 49.3506C5.24351 49.4805 4.8539 49.6104 4.46429 49.4805C4.07468 49.3506 3.81494 49.0909 3.68507 48.7013C2.51623 44.935 1.21753 41.4285 0.0487013 38.0519C-0.0811688 37.5324 0.0487013 37.013 0.438312 36.6233C3.81494 34.2857 7.19156 31.8182 10.5682 29.3506C10.9578 29.0909 11.2175 29.0909 11.6071 29.0909C11.9968 29.2208 12.2565 29.4805 12.3864 29.8701Z" fill="#FFCD00"/>
<path fill-rule="evenodd" clip-rule="evenodd" d="M39.3993 0.12987C44.724 0.12987 50.1786 0.12987 55.5032 0C55.763 0 56.0227 0.12987 56.0227 0.38961C56.1526 0.649351 56.1526 0.909091 55.8928 1.03896C51.737 5.45455 47.5811 9.87013 43.4253 14.2857C43.1656 14.6753 42.776 14.8052 42.2565 14.6753C41.8669 14.5455 41.6071 14.2857 41.4773 13.7662C40.4383 9.74026 39.2695 5.71429 38.2305 1.55844C38.2305 1.16883 38.2305 0.909091 38.4902 0.519481C38.75 0.25974 39.0097 0.12987 39.3993 0.12987Z" fill="#FF6900"/>
<defs>
<linearGradient id="paint0_linear_2066_210" x1="41.7589" y1="32.8511" x2="92.2774" y2="-33.4526" gradientUnits="userSpaceOnUse">
<stop stop-color="#969696"/>
<stop offset="1" stop-color="#606060"/>
</linearGradient>
</defs>
</svg>
